<svg xmlns="http://www.w3.org/2000/svg" width="11" height="7" viewBox="0 0 11 7">
  <path fill="#AAA" d="M9.85355339,3.14644661 C9.94403559,3.23692881 10,3.36192881 10,3.5 C10,3.63807119 9.94403559,3.76307119 9.85355339,3.85355339 L7.85355339,5.85355339 C7.65829124,6.04881554 7.34170876,6.04881554 7.14644661,5.85355339 C6.95118446,5.65829124 6.95118446,5.34170876 7.14644661,5.14644661 L8.29289322,4 L1.5,4 C1.22385763,4 1,3.77614237 1,3.5 C1,3.22385763 1.22385763,3 1.5,3 L8.29289322,3 L7.14644661,1.85355339 C6.95118446,1.65829124 6.95118446,1.34170876 7.14644661,1.14644661 C7.34170876,0.951184464 7.65829124,0.951184464 7.85355339,1.14644661 L9.85355339,3.14644661 Z"/>
</svg>
