<svg xmlns="http://www.w3.org/2000/svg" viewBox="0 0 64 64">
    <path d="M40.62,22.94H35.23L35,21l2.51-.52v-15h-2.6l-.22-2.07,6.21-1.25h2.6l.09,3.52,6.55-4.13a13.15,13.15,0,0,1,3.19.33,4.44,4.44,0,0,1,2.06,1.09A4.41,4.41,0,0,1,56.55,5a13,13,0,0,1,.35,3.26V20.45l2.65.52-.22,2H49.12l-.22-2,1.78-.52V8.54Q50.69,6,48.38,6a4,4,0,0,0-1.91.51,15.55,15.55,0,0,0-1.87,1.16l-1,.66V20.45l1.86.52-.22,2Z"/>
    <polygon points="30.78 9.84 30.78 5.84 6.76 5.84 6.76 9.84 14.77 13.85 14.77 55.88 6.76 59.89 6.76 63.89 30.78 63.89 30.78 59.89 22.77 55.88 22.77 13.85 30.78 9.84"/>
</svg>
