<svg id="0655475c-bdf3-4d46-8d4d-3b00732cec76" data-name="Calque 1" xmlns="http://www.w3.org/2000/svg" viewBox="0 0 64 64"><defs><style>.\36 a001e1d-a674-4319-9178-64223bdb4c32{fill:#111;}</style></defs><title>h1</title><path class="6a001e1d-a674-4319-9178-64223bdb4c32" d="M53.28,47.94c-.75,0-.8-.2-.8-1V23.53H42l-.55,4.09,4.33.9c.5.15.65.45.65,1V46.95c0,.75-.1.95-.8,1l-3.92.35v3.94H57V48.29ZM22.44,52.23V48.4l4.35-2.18V35.81H10.75V46.23L15.1,48.4v3.83H0V48.4l4.35-2.18V19.1L0,16.92V13.1H15.1v3.83L10.75,19.1V29.42H26.8V19.1l-4.35-2.18V13.1h15.1v3.83L33.19,19.1V46.23l4.35,2.18v3.83Z"/></svg>