<svg xmlns="http://www.w3.org/2000/svg" viewBox="0 0 64 64">
	<path class="c2856b8e-6da1-408d-bc09-6df7373bd910" d="M59.73,43.91l-.62,3.52a1.22,1.22,0,0,1-1.39,1.09H50.28a.59.59,0,0,1-.41-1L55.62,42c3.63-3.48,6.77-6.48,6.77-11,0-5-3.28-7.5-10-7.5-7.16,0-10.63,2.62-10.87,8.22l5.69.5c.14-3.23,1.42-4.45,4.53-4.45,2.7,0,4.18,1.36,4.18,3.83,0,3-2.2,5.18-7,9.85l-7,6.88v3.86H64V43.91ZM22.44,52.23V48.4l4.35-2.18V35.81H10.75V46.23L15.1,48.4v3.83H0V48.4l4.35-2.18V19.1L0,16.92V13.1H15.1v3.83L10.75,19.1V29.42H26.8V19.1l-4.35-2.18V13.1h15.1v3.83L33.19,19.1V46.23l4.35,2.18v3.83Z"/>
</svg>