<svg xmlns="http://www.w3.org/2000/svg" viewBox="0 0 64 64">
	<path class="cfc52de1-c218-4253-b921-6f2ad3689e1a" d="M55.47,37.41h0v-.17a6.67,6.67,0,0,0,4.9-6.64c0-4.56-2.51-7.07-9.07-7.07-4.47,0-9.54,1.15-9.54,7.88l5.83.51c0-3,1.11-3.79,3.4-3.79s3.11,1.32,3.11,2.94c0,2.73-1.66,4.21-4.73,4.6l-2.09.26v4.26a17.45,17.45,0,0,1,3.15-.3c2.64,0,4.26,1.06,4.26,3.66,0,3-2,3.83-4.43,3.83a8.5,8.5,0,0,1-6.39-2.81l-3.41,3.75c2.17,2.39,6,3.92,10.3,3.92,6.09,0,10.3-2.64,10.3-8.26C61.09,40.14,59.09,38,55.47,37.41Zm-33,14.82V48.4l4.35-2.18V35.81H10.75V46.23L15.1,48.4v3.83H0V48.4l4.35-2.18V19.1L0,16.92V13.1H15.1v3.83L10.75,19.1V29.42H26.8V19.1l-4.35-2.18V13.1h15.1v3.83L33.19,19.1V46.23l4.35,2.18v3.83Z"/>
</svg>