<svg xmlns="http://www.w3.org/2000/svg" viewBox="0 0 64 64">
	<path d="M22.44,52.23V48.4l4.35-2.18V35.81H10.75V46.23L15.1,48.4v3.83H0V48.4l4.35-2.18V19.1L0,16.92V13.1H15.1v3.83L10.75,19.1V29.42H26.8V19.1l-4.35-2.18V13.1h15.1v3.83L33.19,19.1V46.23l4.35,2.18v3.83ZM55.3,51.4a8.25,8.25,0,0,0,4.59-5.35,12.65,12.65,0,0,0,.49-3.47,10.6,10.6,0,0,0-.56-3.48,8.73,8.73,0,0,0-1.64-2.87,7.76,7.76,0,0,0-2.62-2,8.15,8.15,0,0,0-3.46-.71,11.55,11.55,0,0,0-3.16.32l-.6.19.74-5.65h9.11l.86-4.9H43.91L42.37,37.81l2.45,1.82.24-.08a4.42,4.42,0,0,0,.58-.27,6.15,6.15,0,0,1,.95-.38,12.77,12.77,0,0,1,1.55-.37,12.34,12.34,0,0,1,2.15-.16,3.72,3.72,0,0,1,2.78,1,4.26,4.26,0,0,1,1,3.12,6.14,6.14,0,0,1-1,3.77A3.81,3.81,0,0,1,50,47.48a7.55,7.55,0,0,1-2.85-.57q-1.48-.6-3.45-1.46l-.46-.2-1.83,4.48.43.19a33.89,33.89,0,0,0,4.48,1.66,16.55,16.55,0,0,0,4.64.67A10.27,10.27,0,0,0,55.3,51.4Z"/>
</svg>