<svg xmlns="http://www.w3.org/2000/svg" viewBox="0 0 64 64">
	<path d="M22.44,52.23V48.4l4.35-2.18V35.81H10.75V46.23L15.1,48.4v3.83H0V48.4l4.35-2.18V19.1L0,16.92V13.1H15.1v3.83L10.75,19.1V29.42H26.8V19.1l-4.35-2.18V13.1h15.1v3.83L33.19,19.1V46.23l4.35,2.18v3.83Zm31.64-.72a8.84,8.84,0,0,0,3.13-2,8.64,8.64,0,0,0,1.94-3,10.69,10.69,0,0,0,.65-3.75,9.89,9.89,0,0,0-2.28-6.92,8.13,8.13,0,0,0-6.28-2.5,7.32,7.32,0,0,0-2.16.3,8.61,8.61,0,0,0-1.71.73,8.14,8.14,0,0,0-1.32.93h0a20.3,20.3,0,0,1,.25-2,8.09,8.09,0,0,1,.91-2.61A4.52,4.52,0,0,1,48.9,28.9a5.61,5.61,0,0,1,2.82-.62,11.34,11.34,0,0,1,2.14.21,13.25,13.25,0,0,1,2,.54l.45.16L58,24.91l-.44-.18A17.58,17.58,0,0,0,55,23.89a12.71,12.71,0,0,0-3.08-.36,12.1,12.1,0,0,0-5.57,1.19,10.72,10.72,0,0,0-3.77,3.17,13.15,13.15,0,0,0-2.12,4.57,21.67,21.67,0,0,0-.66,5.38,30.28,30.28,0,0,0,.5,5.69,13.83,13.83,0,0,0,1.67,4.56,8.51,8.51,0,0,0,3.12,3,9.62,9.62,0,0,0,4.77,1.09A11.74,11.74,0,0,0,54.09,51.51Zm-7.73-12.1a12.27,12.27,0,0,1,1.05-.66,7.05,7.05,0,0,1,1.37-.58,5,5,0,0,1,1.53-.23A2.86,2.86,0,0,1,53,39.22a7,7,0,0,1,.81,3.51A6.58,6.58,0,0,1,53,46.35a3,3,0,0,1-2.75,1.26,3.14,3.14,0,0,1-3.06-1.83A16,16,0,0,1,46,39.68Z"/>
</svg>