<svg xmlns="http://www.w3.org/2000/svg" viewBox="0 0 64 64">
	<path d="M53.21,21.33H10.79A1.93,1.93,0,0,1,8.87,19.4V2.08A1.93,1.93,0,0,1,10.79.16H53.21a1.93,1.93,0,0,1,1.93,1.93V19.4A1.93,1.93,0,0,1,53.21,21.33ZM12.72,17.47H51.28V4H12.72ZM53.21,63.84H10.79a1.93,1.93,0,0,1-1.93-1.93V44.6a1.93,1.93,0,0,1,1.93-1.93H53.21a1.93,1.93,0,0,1,1.93,1.93V61.92A1.93,1.93,0,0,1,53.21,63.84ZM12.72,60H51.28V46.53H12.72ZM63.81,32a2.89,2.89,0,0,0-2.89-2.89H3.08a2.89,2.89,0,1,0,0,5.78H60.92A2.89,2.89,0,0,0,63.81,32Z"/>
</svg>